<svg width="1920" height="840" viewBox="0 0 1920 840" fill="none" xmlns="http://www.w3.org/2000/svg">
<g opacity="0.6">
<line x1="70.1531" y1="-130" x2="70.1531" y2="1227" stroke="#A3C6FF" stroke-width="0.901373" stroke-dasharray="10 10"/>
<line x1="1243.78" y1="-130" x2="1243.78" y2="1227" stroke="#A3C6FF" stroke-width="0.901373" stroke-dasharray="10 10"/>
<line x1="656.964" y1="-130" x2="656.964" y2="1227" stroke="#A3C6FF" stroke-width="0.901373" stroke-dasharray="10 10"/>
<line x1="1830.59" y1="-130" x2="1830.59" y2="1227" stroke="#A3C6FF" stroke-width="0.901373" stroke-dasharray="10 10"/>
<line x1="216.855" y1="-130" x2="216.856" y2="1227" stroke="#A3C6FF" stroke-width="0.901373" stroke-dasharray="10 10"/>
<line x1="1390.48" y1="-130" x2="1390.48" y2="1227" stroke="#A3C6FF" stroke-width="0.901373" stroke-dasharray="10 10"/>
<line x1="803.666" y1="-130" x2="803.666" y2="1227" stroke="#A3C6FF" stroke-width="0.901373" stroke-dasharray="10 10"/>
<line x1="363.558" y1="-130" x2="363.558" y2="1227" stroke="#A3C6FF" stroke-width="0.901373" stroke-dasharray="10 10"/>
<line x1="1537.18" y1="-130" x2="1537.18" y2="1227" stroke="#A3C6FF" stroke-width="0.901373" stroke-dasharray="10 10"/>
<line x1="950.369" y1="-130" x2="950.369" y2="1227" stroke="#A3C6FF" stroke-width="0.901373" stroke-dasharray="10 10"/>
<line x1="510.26" y1="-130" x2="510.26" y2="1227" stroke="#A3C6FF" stroke-width="0.901373" stroke-dasharray="10 10"/>
<line x1="1683.88" y1="-130" x2="1683.88" y2="1227" stroke="#A3C6FF" stroke-width="0.901373" stroke-dasharray="10 10"/>
<line x1="1097.07" y1="-130" x2="1097.07" y2="1227" stroke="#A3C6FF" stroke-width="0.901373" stroke-dasharray="10 10"/>
<line x1="-77" y1="639.74" x2="2123.54" y2="639.74" stroke="#A3C6FF" stroke-width="0.901373" stroke-dasharray="10 10"/>
<line x1="-77" y1="493.037" x2="2123.54" y2="493.037" stroke="#A3C6FF" stroke-width="0.901373" stroke-dasharray="10 10"/>
<line x1="-77" y1="346.333" x2="2123.54" y2="346.332" stroke="#A3C6FF" stroke-width="0.901373" stroke-dasharray="10 10"/>
<line x1="-77" y1="786.441" x2="2123.54" y2="786.441" stroke="#A3C6FF" stroke-width="0.901373" stroke-dasharray="10 10"/>
<line x1="-77" y1="199.631" x2="2123.54" y2="199.631" stroke="#A3C6FF" stroke-width="0.901373" stroke-dasharray="10 10"/>
<line x1="-77" y1="52.9272" x2="2123.54" y2="52.9272" stroke="#A3C6FF" stroke-width="0.901373" stroke-dasharray="10 10"/>
</g>
</svg>
