<svg xmlns="http://www.w3.org/2000/svg" xmlns:xlink="http://www.w3.org/1999/xlink" width="375" zoomAndPan="magnify" viewBox="0 0 281.25 137.249994" height="183" preserveAspectRatio="xMidYMid meet" version="1.0"><defs><g/><clipPath id="5fddb636e0"><path d="M 42 74 L 134.53125 74 L 134.53125 130 L 42 130 Z M 42 74 " clip-rule="nonzero"/></clipPath><clipPath id="c12c999b2a"><path d="M 4 0 L 125 0 L 125 135.757812 L 4 135.757812 Z M 4 0 " clip-rule="nonzero"/></clipPath><clipPath id="7a26511f60"><path d="M 122 16.742188 L 147.359375 16.742188 L 147.359375 42 L 122 42 Z M 122 16.742188 " clip-rule="nonzero"/></clipPath></defs><g clip-path="url(#5fddb636e0)"><path fill="#0e2b0d" d="M 109.699219 106.808594 C 113.785156 99.671875 116.117188 91.402344 116.117188 82.589844 C 116.117188 79.675781 115.863281 76.824219 115.375 74.054688 C 113.394531 85.046875 107.550781 94.699219 99.296875 101.542969 C 94.519531 105.503906 87.40625 104.703125 83.667969 99.746094 L 76.691406 90.503906 C 75.53125 88.964844 73.71875 88.0625 71.789062 88.0625 L 45.207031 88.0625 C 45.203125 88.0625 45.195312 88.0625 45.191406 88.0625 C 43.375 88.074219 42.199219 89.988281 43.015625 91.613281 L 44.074219 93.71875 C 46.042969 97.640625 49.914062 100.242188 54.285156 100.585938 L 55.859375 100.710938 L 62.753906 101.253906 C 64.703125 101.410156 66.464844 102.488281 67.484375 104.15625 L 70.609375 109.269531 L 72.363281 112.132812 L 82.167969 128.175781 C 82.34375 128.460938 82.5625 128.710938 82.8125 128.917969 C 83.527344 129.519531 84.503906 129.769531 85.449219 129.539062 C 85.453125 129.535156 85.460938 129.535156 85.46875 129.53125 C 110.90625 123.253906 130.5 102.15625 134.570312 75.921875 C 130.996094 89.378906 121.828125 100.558594 109.699219 106.808594 " fill-opacity="1" fill-rule="nonzero"/></g><g clip-path="url(#c12c999b2a)"><path fill="#2196f3" d="M 65.609375 105.304688 C 64.957031 104.238281 63.824219 103.542969 62.582031 103.445312 L 54.113281 102.777344 C 49.007812 102.375 44.40625 99.285156 42.109375 94.707031 L 41.105469 92.710938 C 40.394531 91.292969 40.378906 89.597656 41.164062 88.214844 C 41.976562 86.792969 43.4375 85.917969 45.0625 85.867188 L 45.207031 85.863281 L 53.71875 85.863281 C 50.945312 81.484375 45.945312 79.019531 40.769531 79.503906 L 31.925781 80.328125 C 28.136719 80.683594 24.730469 78.070312 24.035156 74.332031 C 23.515625 71.558594 23.246094 68.699219 23.246094 65.777344 C 23.246094 50.960938 30.1875 37.765625 40.992188 29.261719 C 30.285156 36.3125 21.957031 46.671875 17.460938 58.886719 C 21.511719 29.460938 46.753906 6.792969 77.292969 6.792969 C 96.199219 6.792969 113.070312 15.480469 124.148438 29.078125 C 112.378906 11.644531 92.460938 0.167969 69.855469 0.109375 C 33.675781 0.015625 4.066406 29.496094 4.011719 65.679688 C 3.992188 78.414062 7.605469 90.304688 13.863281 100.378906 C 13.996094 100.59375 14.125 100.804688 14.261719 101.019531 L 23.027344 99.53125 C 26.941406 98.871094 30.164062 102.652344 28.832031 106.398438 C 28.796875 106.5 28.773438 106.554688 28.773438 106.554688 C 34.417969 108.609375 33.464844 114.105469 33.464844 114.105469 C 38.449219 116.378906 36.394531 121.066406 36.394531 121.066406 C 38.160156 121.796875 38.777344 123.222656 38.933594 123.6875 C 39.015625 123.925781 39.105469 124.160156 39.199219 124.394531 L 42.605469 133.140625 C 43.191406 134.644531 44.992188 135.875 46.605469 135.875 C 48.644531 135.875 50.054688 133.839844 49.335938 131.933594 L 47.742188 127.6875 L 45.613281 122.023438 C 45.464844 121.628906 45.734375 121.195312 46.164062 121.164062 C 46.449219 121.140625 46.703125 121.324219 46.8125 121.585938 L 49.609375 128.320312 L 51.679688 133.300781 C 52.390625 135.015625 54.273438 136 56.054688 135.480469 C 58.191406 134.855469 59.257812 132.464844 58.289062 130.460938 C 58.289062 130.457031 58.289062 130.457031 58.289062 130.453125 L 53.167969 119.878906 C 52.949219 119.425781 53.25 118.890625 53.75 118.84375 C 54.042969 118.8125 54.320312 118.964844 54.457031 119.21875 L 60.6875 130.832031 L 61.460938 132.269531 C 62.222656 133.691406 63.890625 134.429688 65.421875 133.925781 C 66.609375 133.53125 67.402344 132.535156 67.613281 131.410156 C 67.738281 130.726562 67.652344 129.992188 67.304688 129.316406 L 62.425781 119.867188 C 62.214844 119.449219 62.371094 118.917969 62.804688 118.738281 C 63.1875 118.578125 63.613281 118.742188 63.804688 119.097656 L 69.3125 129.503906 C 69.757812 130.347656 70.421875 131 71.199219 131.429688 C 72.488281 132.144531 74.089844 132.246094 75.519531 131.574219 C 75.796875 131.445312 76.046875 131.285156 76.285156 131.117188 C 78.238281 129.695312 78.851562 126.964844 77.539062 124.820312 L 65.609375 105.304688 " fill-opacity="1" fill-rule="nonzero"/></g><path fill="#0e2b0d" d="M 17.972656 109.253906 L 24.867188 108.109375 C 26.933594 107.765625 28.335938 105.808594 27.992188 103.738281 C 27.648438 101.671875 25.691406 100.269531 23.621094 100.613281 L 16.726562 101.757812 C 14.660156 102.101562 13.261719 104.058594 13.601562 106.125 C 13.945312 108.195312 15.902344 109.59375 17.972656 109.253906 " fill-opacity="1" fill-rule="nonzero"/><path fill="#0e2b0d" d="M 31.507812 111.214844 C 31.164062 109.144531 29.210938 107.746094 27.140625 108.089844 L 17.730469 109.890625 C 15.660156 110.234375 14.261719 112.1875 14.605469 114.257812 C 14.949219 116.324219 16.902344 117.726562 18.972656 117.382812 L 28.382812 115.582031 C 30.453125 115.238281 31.851562 113.285156 31.507812 111.214844 " fill-opacity="1" fill-rule="nonzero"/><path fill="#0e2b0d" d="M 34.683594 119.035156 C 34.339844 116.964844 32.386719 115.566406 30.316406 115.910156 L 23.421875 117.050781 C 21.351562 117.394531 19.953125 119.351562 20.296875 121.421875 C 20.640625 123.488281 22.597656 124.886719 24.664062 124.542969 L 31.558594 123.402344 C 33.628906 123.058594 35.027344 121.101562 34.683594 119.035156 " fill-opacity="1" fill-rule="nonzero"/><path fill="#0e2b0d" d="M 35.105469 123.238281 L 29.441406 124.140625 C 27.375 124.480469 25.976562 126.4375 26.316406 128.507812 C 26.660156 130.574219 28.617188 131.976562 30.6875 131.632812 L 36.347656 130.730469 C 38.417969 130.386719 39.816406 128.429688 39.472656 126.363281 C 39.128906 124.292969 37.175781 122.894531 35.105469 123.238281 " fill-opacity="1" fill-rule="nonzero"/><g fill="#2196f3" fill-opacity="1"><g transform="translate(31.049744, 68.747992)"><g><path d="M 0.796875 -17.671875 L 0.796875 -19.796875 C 0.796875 -20.191406 0.988281 -20.390625 1.375 -20.390625 L 15.359375 -20.390625 C 15.535156 -20.390625 15.671875 -20.332031 15.765625 -20.21875 C 15.867188 -20.113281 15.921875 -19.972656 15.921875 -19.796875 L 15.921875 -17.671875 C 15.921875 -17.273438 15.734375 -17.078125 15.359375 -17.078125 L 10.234375 -17.078125 L 10.234375 -0.578125 C 10.234375 -0.179688 10.035156 0.015625 9.640625 0.015625 L 7.046875 0.015625 C 6.648438 0.015625 6.453125 -0.179688 6.453125 -0.578125 L 6.453125 -17.078125 L 1.375 -17.078125 C 1.195312 -17.078125 1.054688 -17.125 0.953125 -17.21875 C 0.847656 -17.320312 0.796875 -17.472656 0.796875 -17.671875 Z M 0.796875 -17.671875 "/></g></g></g><g fill="#2196f3" fill-opacity="1"><g transform="translate(50.51984, 68.747992)"><g><path d="M 19.734375 -0.65625 C 19.828125 -0.457031 19.832031 -0.289062 19.75 -0.15625 C 19.675781 -0.03125 19.523438 0.03125 19.296875 0.03125 L 16.40625 0.03125 C 16.257812 0.03125 16.125 -0.0195312 16 -0.125 C 15.882812 -0.226562 15.796875 -0.351562 15.734375 -0.5 L 14.90625 -2.484375 L 5.546875 -2.484375 L 4.71875 -0.515625 C 4.65625 -0.367188 4.566406 -0.242188 4.453125 -0.140625 C 4.335938 -0.0351562 4.195312 0.015625 4.03125 0.015625 L 1.15625 0.015625 C 0.925781 0.015625 0.769531 -0.046875 0.6875 -0.171875 C 0.601562 -0.296875 0.609375 -0.460938 0.703125 -0.671875 L 9.375 -20.125 C 9.445312 -20.289062 9.550781 -20.421875 9.6875 -20.515625 C 9.832031 -20.609375 9.976562 -20.65625 10.125 -20.65625 L 10.296875 -20.65625 C 10.453125 -20.65625 10.59375 -20.601562 10.71875 -20.5 C 10.851562 -20.40625 10.957031 -20.273438 11.03125 -20.109375 Z M 6.875 -5.734375 L 13.5625 -5.734375 L 10.21875 -13.84375 Z M 6.875 -5.734375 "/></g></g></g><g fill="#2196f3" fill-opacity="1"><g transform="translate(73.707272, 68.747992)"><g><path d="M 15.4375 -3.328125 C 15.726562 -3.328125 15.875 -3.175781 15.875 -2.875 L 15.875 -0.453125 C 15.875 -0.148438 15.726562 0 15.4375 0 L 2.890625 0 C 2.578125 0 2.421875 -0.148438 2.421875 -0.453125 L 2.421875 -19.953125 C 2.421875 -20.253906 2.578125 -20.40625 2.890625 -20.40625 L 5.78125 -20.40625 C 6.082031 -20.40625 6.234375 -20.253906 6.234375 -19.953125 L 6.234375 -3.328125 Z M 15.4375 -3.328125 "/></g></g></g><g fill="#2196f3" fill-opacity="1"><g transform="translate(92.855291, 68.747992)"><g><path d="M 17.1875 -3.59375 C 17.4375 -3.59375 17.632812 -3.523438 17.78125 -3.390625 C 17.9375 -3.253906 18.015625 -3.070312 18.015625 -2.84375 L 18.015625 -0.59375 C 18.015625 -0.414062 17.957031 -0.269531 17.84375 -0.15625 C 17.726562 -0.0507812 17.578125 0 17.390625 0 L 3.03125 0 C 2.625 0 2.421875 -0.195312 2.421875 -0.59375 L 2.421875 -19.78125 C 2.421875 -20.1875 2.625 -20.390625 3.03125 -20.390625 L 17.109375 -20.390625 C 17.304688 -20.390625 17.457031 -20.332031 17.5625 -20.21875 C 17.675781 -20.113281 17.734375 -19.972656 17.734375 -19.796875 L 17.734375 -17.40625 C 17.734375 -16.988281 17.523438 -16.78125 17.109375 -16.78125 L 6.234375 -16.78125 L 6.234375 -11.171875 L 14.75 -11.171875 C 14.96875 -11.171875 15.140625 -11.113281 15.265625 -11 C 15.390625 -10.894531 15.453125 -10.738281 15.453125 -10.53125 L 15.453125 -8.296875 C 15.453125 -8.117188 15.390625 -7.972656 15.265625 -7.859375 C 15.140625 -7.742188 14.96875 -7.6875 14.75 -7.6875 L 6.234375 -7.6875 L 6.234375 -3.59375 Z M 17.1875 -3.59375 "/></g></g></g><g fill="#2196f3" fill-opacity="1"><g transform="translate(114.982537, 68.747992)"><g><path d="M 20.125 -20.40625 C 20.4375 -20.40625 20.59375 -20.257812 20.59375 -19.96875 L 20.59375 -0.359375 C 20.59375 -0.160156 20.539062 -0.0078125 20.4375 0.09375 C 20.332031 0.207031 20.207031 0.265625 20.0625 0.265625 L 20.03125 0.265625 C 19.863281 0.265625 19.722656 0.210938 19.609375 0.109375 C 19.492188 0.015625 19.359375 -0.09375 19.203125 -0.21875 L 6.234375 -12.53125 L 6.234375 -0.421875 C 6.234375 -0.128906 6.082031 0.015625 5.78125 0.015625 L 2.890625 0.015625 C 2.578125 0.015625 2.421875 -0.128906 2.421875 -0.421875 L 2.421875 -20.0625 C 2.421875 -20.226562 2.46875 -20.367188 2.5625 -20.484375 C 2.65625 -20.597656 2.773438 -20.65625 2.921875 -20.65625 L 2.984375 -20.65625 C 3.117188 -20.65625 3.238281 -20.601562 3.34375 -20.5 C 3.457031 -20.40625 3.585938 -20.296875 3.734375 -20.171875 L 16.796875 -7.796875 L 16.796875 -19.96875 C 16.796875 -20.257812 16.945312 -20.40625 17.25 -20.40625 Z M 20.125 -20.40625 "/></g></g></g><g fill="#2196f3" fill-opacity="1"><g transform="translate(140.746599, 68.747992)"><g><path d="M 0.796875 -17.671875 L 0.796875 -19.796875 C 0.796875 -20.191406 0.988281 -20.390625 1.375 -20.390625 L 15.359375 -20.390625 C 15.535156 -20.390625 15.671875 -20.332031 15.765625 -20.21875 C 15.867188 -20.113281 15.921875 -19.972656 15.921875 -19.796875 L 15.921875 -17.671875 C 15.921875 -17.273438 15.734375 -17.078125 15.359375 -17.078125 L 10.234375 -17.078125 L 10.234375 -0.578125 C 10.234375 -0.179688 10.035156 0.015625 9.640625 0.015625 L 7.046875 0.015625 C 6.648438 0.015625 6.453125 -0.179688 6.453125 -0.578125 L 6.453125 -17.078125 L 1.375 -17.078125 C 1.195312 -17.078125 1.054688 -17.125 0.953125 -17.21875 C 0.847656 -17.320312 0.796875 -17.472656 0.796875 -17.671875 Z M 0.796875 -17.671875 "/></g></g></g><g fill="#2196f3" fill-opacity="1"><g transform="translate(160.216692, 68.747992)"><g/></g></g><g fill="#2196f3" fill-opacity="1"><g transform="translate(171.607966, 68.747992)"><g><path d="M 15.4375 -3.328125 C 15.726562 -3.328125 15.875 -3.175781 15.875 -2.875 L 15.875 -0.453125 C 15.875 -0.148438 15.726562 0 15.4375 0 L 2.890625 0 C 2.578125 0 2.421875 -0.148438 2.421875 -0.453125 L 2.421875 -19.953125 C 2.421875 -20.253906 2.578125 -20.40625 2.890625 -20.40625 L 5.78125 -20.40625 C 6.082031 -20.40625 6.234375 -20.253906 6.234375 -19.953125 L 6.234375 -3.328125 Z M 15.4375 -3.328125 "/></g></g></g><g fill="#2196f3" fill-opacity="1"><g transform="translate(190.755979, 68.747992)"><g><path d="M 6.21875 -19.953125 L 6.21875 -0.421875 C 6.21875 -0.128906 6.0625 0.015625 5.75 0.015625 L 2.875 0.015625 C 2.570312 0.015625 2.421875 -0.128906 2.421875 -0.421875 L 2.421875 -19.953125 C 2.421875 -20.253906 2.570312 -20.40625 2.875 -20.40625 L 5.75 -20.40625 C 6.0625 -20.40625 6.21875 -20.253906 6.21875 -19.953125 Z M 6.21875 -19.953125 "/></g></g></g><g fill="#2196f3" fill-opacity="1"><g transform="translate(202.147253, 68.747992)"><g><path d="M 20.125 -20.40625 C 20.4375 -20.40625 20.59375 -20.257812 20.59375 -19.96875 L 20.59375 -0.359375 C 20.59375 -0.160156 20.539062 -0.0078125 20.4375 0.09375 C 20.332031 0.207031 20.207031 0.265625 20.0625 0.265625 L 20.03125 0.265625 C 19.863281 0.265625 19.722656 0.210938 19.609375 0.109375 C 19.492188 0.015625 19.359375 -0.09375 19.203125 -0.21875 L 6.234375 -12.53125 L 6.234375 -0.421875 C 6.234375 -0.128906 6.082031 0.015625 5.78125 0.015625 L 2.890625 0.015625 C 2.578125 0.015625 2.421875 -0.128906 2.421875 -0.421875 L 2.421875 -20.0625 C 2.421875 -20.226562 2.46875 -20.367188 2.5625 -20.484375 C 2.65625 -20.597656 2.773438 -20.65625 2.921875 -20.65625 L 2.984375 -20.65625 C 3.117188 -20.65625 3.238281 -20.601562 3.34375 -20.5 C 3.457031 -20.40625 3.585938 -20.296875 3.734375 -20.171875 L 16.796875 -7.796875 L 16.796875 -19.96875 C 16.796875 -20.257812 16.945312 -20.40625 17.25 -20.40625 Z M 20.125 -20.40625 "/></g></g></g><g fill="#2196f3" fill-opacity="1"><g transform="translate(227.911326, 68.747992)"><g><path d="M 20.328125 -0.71875 C 20.441406 -0.519531 20.46875 -0.34375 20.40625 -0.1875 C 20.351562 -0.0390625 20.222656 0.03125 20.015625 0.03125 L 16.78125 0.03125 C 16.539062 0.03125 16.34375 -0.0703125 16.1875 -0.28125 L 9.78125 -11.3125 L 6.234375 -7.828125 L 6.234375 -0.421875 C 6.234375 -0.128906 6.082031 0.015625 5.78125 0.015625 L 2.890625 0.015625 C 2.578125 0.015625 2.421875 -0.128906 2.421875 -0.421875 L 2.421875 -19.953125 C 2.421875 -20.253906 2.578125 -20.40625 2.890625 -20.40625 L 5.78125 -20.40625 C 6.082031 -20.40625 6.234375 -20.253906 6.234375 -19.953125 L 6.234375 -12.640625 L 13.828125 -19.984375 C 13.972656 -20.140625 14.109375 -20.242188 14.234375 -20.296875 C 14.359375 -20.359375 14.507812 -20.390625 14.6875 -20.390625 L 18.015625 -20.390625 C 18.234375 -20.390625 18.367188 -20.296875 18.421875 -20.109375 C 18.472656 -19.929688 18.421875 -19.769531 18.265625 -19.625 L 12.515625 -13.984375 Z M 20.328125 -0.71875 "/></g></g></g><g clip-path="url(#7a26511f60)"><path fill="#2196f3" d="M 122 29.316406 C 132.902344 30.988281 132.902344 30.988281 134.574219 41.890625 C 136.242188 30.988281 136.242188 30.988281 147.148438 29.316406 C 136.242188 27.648438 136.242188 27.648438 134.574219 16.742188 C 132.902344 27.648438 132.902344 27.648438 122 29.316406 " fill-opacity="1" fill-rule="nonzero"/></g></svg>